<mxfile host="app.diagrams.net" modified="2021-06-18T11:03:33.462Z" agent="5.0 (Macintosh; Intel Mac OS X 10_14_0) AppleWebKit/537.36 (KHTML, like Gecko) Chrome/91.0.4472.101 Safari/537.36" etag="nnL9vRzeCtUTxjw00Yu0" version="14.8.0" type="github">
  <diagram id="W2JSy2CHXhXldPpm-gYV" name="Page-1">
    <mxGraphModel dx="1186" dy="696" grid="1" gridSize="10" guides="1" tooltips="1" connect="1" arrows="1" fold="1" page="1" pageScale="1" pageWidth="827" pageHeight="1169" math="0" shadow="0">
      <root>
        <mxCell id="0" />
        <mxCell id="1" parent="0" />
        <mxCell id="7S-N-IcKt6Mbr5NxV9ry-1" value="0" style="rounded=0;whiteSpace=wrap;html=1;fillColor=#f8cecc;strokeColor=#b85450;" vertex="1" parent="1">
          <mxGeometry x="190" y="100" width="30" height="30" as="geometry" />
        </mxCell>
        <mxCell id="7S-N-IcKt6Mbr5NxV9ry-2" value="0" style="rounded=0;whiteSpace=wrap;html=1;fillColor=#f8cecc;strokeColor=#b85450;" vertex="1" parent="1">
          <mxGeometry x="220" y="100" width="30" height="30" as="geometry" />
        </mxCell>
        <mxCell id="7S-N-IcKt6Mbr5NxV9ry-3" value="0" style="rounded=0;whiteSpace=wrap;html=1;fillColor=#f8cecc;strokeColor=#b85450;" vertex="1" parent="1">
          <mxGeometry x="250" y="100" width="30" height="30" as="geometry" />
        </mxCell>
        <mxCell id="7S-N-IcKt6Mbr5NxV9ry-4" value="" style="rounded=0;whiteSpace=wrap;html=1;fillColor=#f8cecc;strokeColor=#b85450;" vertex="1" parent="1">
          <mxGeometry x="340" y="100" width="30" height="30" as="geometry" />
        </mxCell>
        <mxCell id="7S-N-IcKt6Mbr5NxV9ry-5" value="" style="rounded=0;whiteSpace=wrap;html=1;fillColor=#f8cecc;strokeColor=#b85450;" vertex="1" parent="1">
          <mxGeometry x="310" y="100" width="30" height="30" as="geometry" />
        </mxCell>
        <mxCell id="7S-N-IcKt6Mbr5NxV9ry-6" value="" style="rounded=0;whiteSpace=wrap;html=1;fillColor=#f8cecc;strokeColor=#b85450;" vertex="1" parent="1">
          <mxGeometry x="280" y="100" width="30" height="30" as="geometry" />
        </mxCell>
        <mxCell id="7S-N-IcKt6Mbr5NxV9ry-10" value="" style="rounded=0;whiteSpace=wrap;html=1;fillColor=#f8cecc;strokeColor=#b85450;" vertex="1" parent="1">
          <mxGeometry x="370" y="100" width="30" height="30" as="geometry" />
        </mxCell>
        <mxCell id="7S-N-IcKt6Mbr5NxV9ry-11" value="" style="rounded=0;whiteSpace=wrap;html=1;fillColor=#f8cecc;strokeColor=#b85450;" vertex="1" parent="1">
          <mxGeometry x="400" y="100" width="30" height="30" as="geometry" />
        </mxCell>
        <mxCell id="7S-N-IcKt6Mbr5NxV9ry-12" value="" style="rounded=0;whiteSpace=wrap;html=1;fillColor=#f8cecc;strokeColor=#b85450;" vertex="1" parent="1">
          <mxGeometry x="430" y="100" width="30" height="30" as="geometry" />
        </mxCell>
        <mxCell id="7S-N-IcKt6Mbr5NxV9ry-13" value="" style="rounded=0;whiteSpace=wrap;html=1;fillColor=#f8cecc;strokeColor=#b85450;" vertex="1" parent="1">
          <mxGeometry x="520" y="100" width="30" height="30" as="geometry" />
        </mxCell>
        <mxCell id="7S-N-IcKt6Mbr5NxV9ry-14" value="" style="rounded=0;whiteSpace=wrap;html=1;fillColor=#f8cecc;strokeColor=#b85450;" vertex="1" parent="1">
          <mxGeometry x="490" y="100" width="30" height="30" as="geometry" />
        </mxCell>
        <mxCell id="7S-N-IcKt6Mbr5NxV9ry-15" value="" style="rounded=0;whiteSpace=wrap;html=1;fillColor=#f8cecc;strokeColor=#b85450;" vertex="1" parent="1">
          <mxGeometry x="460" y="100" width="30" height="30" as="geometry" />
        </mxCell>
        <mxCell id="7S-N-IcKt6Mbr5NxV9ry-16" value="" style="rounded=0;whiteSpace=wrap;html=1;fillColor=#f8cecc;strokeColor=#b85450;" vertex="1" parent="1">
          <mxGeometry x="190" y="130" width="30" height="30" as="geometry" />
        </mxCell>
        <mxCell id="7S-N-IcKt6Mbr5NxV9ry-17" value="" style="rounded=0;whiteSpace=wrap;html=1;fillColor=#f8cecc;strokeColor=#b85450;" vertex="1" parent="1">
          <mxGeometry x="220" y="130" width="30" height="30" as="geometry" />
        </mxCell>
        <mxCell id="7S-N-IcKt6Mbr5NxV9ry-18" value="" style="rounded=0;whiteSpace=wrap;html=1;fillColor=#f8cecc;strokeColor=#b85450;" vertex="1" parent="1">
          <mxGeometry x="250" y="130" width="30" height="30" as="geometry" />
        </mxCell>
        <mxCell id="7S-N-IcKt6Mbr5NxV9ry-19" value="" style="rounded=0;whiteSpace=wrap;html=1;fillColor=#f8cecc;strokeColor=#b85450;" vertex="1" parent="1">
          <mxGeometry x="340" y="130" width="30" height="30" as="geometry" />
        </mxCell>
        <mxCell id="7S-N-IcKt6Mbr5NxV9ry-20" value="" style="rounded=0;whiteSpace=wrap;html=1;fillColor=#f8cecc;strokeColor=#b85450;" vertex="1" parent="1">
          <mxGeometry x="310" y="130" width="30" height="30" as="geometry" />
        </mxCell>
        <mxCell id="7S-N-IcKt6Mbr5NxV9ry-21" value="" style="rounded=0;whiteSpace=wrap;html=1;fillColor=#f8cecc;strokeColor=#b85450;" vertex="1" parent="1">
          <mxGeometry x="280" y="130" width="30" height="30" as="geometry" />
        </mxCell>
        <mxCell id="7S-N-IcKt6Mbr5NxV9ry-22" value="" style="rounded=0;whiteSpace=wrap;html=1;fillColor=#f8cecc;strokeColor=#b85450;" vertex="1" parent="1">
          <mxGeometry x="370" y="130" width="30" height="30" as="geometry" />
        </mxCell>
        <mxCell id="7S-N-IcKt6Mbr5NxV9ry-23" value="" style="rounded=0;whiteSpace=wrap;html=1;fillColor=#f8cecc;strokeColor=#b85450;" vertex="1" parent="1">
          <mxGeometry x="400" y="130" width="30" height="30" as="geometry" />
        </mxCell>
        <mxCell id="7S-N-IcKt6Mbr5NxV9ry-24" value="" style="rounded=0;whiteSpace=wrap;html=1;fillColor=#f8cecc;strokeColor=#b85450;" vertex="1" parent="1">
          <mxGeometry x="430" y="130" width="30" height="30" as="geometry" />
        </mxCell>
        <mxCell id="7S-N-IcKt6Mbr5NxV9ry-25" value="" style="rounded=0;whiteSpace=wrap;html=1;fillColor=#f8cecc;strokeColor=#b85450;" vertex="1" parent="1">
          <mxGeometry x="520" y="130" width="30" height="30" as="geometry" />
        </mxCell>
        <mxCell id="7S-N-IcKt6Mbr5NxV9ry-26" value="" style="rounded=0;whiteSpace=wrap;html=1;fillColor=#f8cecc;strokeColor=#b85450;" vertex="1" parent="1">
          <mxGeometry x="490" y="130" width="30" height="30" as="geometry" />
        </mxCell>
        <mxCell id="7S-N-IcKt6Mbr5NxV9ry-27" value="" style="rounded=0;whiteSpace=wrap;html=1;fillColor=#f8cecc;strokeColor=#b85450;" vertex="1" parent="1">
          <mxGeometry x="460" y="130" width="30" height="30" as="geometry" />
        </mxCell>
        <mxCell id="7S-N-IcKt6Mbr5NxV9ry-28" value="" style="rounded=0;whiteSpace=wrap;html=1;fillColor=#f8cecc;strokeColor=#b85450;" vertex="1" parent="1">
          <mxGeometry x="190" y="160" width="30" height="30" as="geometry" />
        </mxCell>
        <mxCell id="7S-N-IcKt6Mbr5NxV9ry-29" value="" style="rounded=0;whiteSpace=wrap;html=1;fillColor=#f8cecc;strokeColor=#b85450;" vertex="1" parent="1">
          <mxGeometry x="220" y="160" width="30" height="30" as="geometry" />
        </mxCell>
        <mxCell id="7S-N-IcKt6Mbr5NxV9ry-30" value="" style="rounded=0;whiteSpace=wrap;html=1;fillColor=#f8cecc;strokeColor=#b85450;" vertex="1" parent="1">
          <mxGeometry x="250" y="160" width="30" height="30" as="geometry" />
        </mxCell>
        <mxCell id="7S-N-IcKt6Mbr5NxV9ry-31" value="" style="rounded=0;whiteSpace=wrap;html=1;fillColor=#f8cecc;strokeColor=#b85450;" vertex="1" parent="1">
          <mxGeometry x="340" y="160" width="30" height="30" as="geometry" />
        </mxCell>
        <mxCell id="7S-N-IcKt6Mbr5NxV9ry-32" value="" style="rounded=0;whiteSpace=wrap;html=1;fillColor=#f8cecc;strokeColor=#b85450;" vertex="1" parent="1">
          <mxGeometry x="310" y="160" width="30" height="30" as="geometry" />
        </mxCell>
        <mxCell id="7S-N-IcKt6Mbr5NxV9ry-33" value="" style="rounded=0;whiteSpace=wrap;html=1;fillColor=#f8cecc;strokeColor=#b85450;" vertex="1" parent="1">
          <mxGeometry x="280" y="160" width="30" height="30" as="geometry" />
        </mxCell>
        <mxCell id="7S-N-IcKt6Mbr5NxV9ry-34" value="" style="rounded=0;whiteSpace=wrap;html=1;fillColor=#f8cecc;strokeColor=#b85450;" vertex="1" parent="1">
          <mxGeometry x="370" y="160" width="30" height="30" as="geometry" />
        </mxCell>
        <mxCell id="7S-N-IcKt6Mbr5NxV9ry-35" value="" style="rounded=0;whiteSpace=wrap;html=1;fillColor=#f8cecc;strokeColor=#b85450;" vertex="1" parent="1">
          <mxGeometry x="400" y="160" width="30" height="30" as="geometry" />
        </mxCell>
        <mxCell id="7S-N-IcKt6Mbr5NxV9ry-36" value="" style="rounded=0;whiteSpace=wrap;html=1;fillColor=#f8cecc;strokeColor=#b85450;" vertex="1" parent="1">
          <mxGeometry x="430" y="160" width="30" height="30" as="geometry" />
        </mxCell>
        <mxCell id="7S-N-IcKt6Mbr5NxV9ry-37" value="" style="rounded=0;whiteSpace=wrap;html=1;fillColor=#f8cecc;strokeColor=#b85450;" vertex="1" parent="1">
          <mxGeometry x="520" y="160" width="30" height="30" as="geometry" />
        </mxCell>
        <mxCell id="7S-N-IcKt6Mbr5NxV9ry-38" value="" style="rounded=0;whiteSpace=wrap;html=1;fillColor=#f8cecc;strokeColor=#b85450;" vertex="1" parent="1">
          <mxGeometry x="490" y="160" width="30" height="30" as="geometry" />
        </mxCell>
        <mxCell id="7S-N-IcKt6Mbr5NxV9ry-39" value="" style="rounded=0;whiteSpace=wrap;html=1;fillColor=#f8cecc;strokeColor=#b85450;" vertex="1" parent="1">
          <mxGeometry x="460" y="160" width="30" height="30" as="geometry" />
        </mxCell>
        <mxCell id="7S-N-IcKt6Mbr5NxV9ry-40" value="" style="rounded=0;whiteSpace=wrap;html=1;fillColor=#f8cecc;strokeColor=#b85450;" vertex="1" parent="1">
          <mxGeometry x="190" y="190" width="30" height="30" as="geometry" />
        </mxCell>
        <mxCell id="7S-N-IcKt6Mbr5NxV9ry-41" value="" style="rounded=0;whiteSpace=wrap;html=1;fillColor=#f8cecc;strokeColor=#b85450;" vertex="1" parent="1">
          <mxGeometry x="220" y="190" width="30" height="30" as="geometry" />
        </mxCell>
        <mxCell id="7S-N-IcKt6Mbr5NxV9ry-42" value="" style="rounded=0;whiteSpace=wrap;html=1;fillColor=#f8cecc;strokeColor=#b85450;" vertex="1" parent="1">
          <mxGeometry x="250" y="190" width="30" height="30" as="geometry" />
        </mxCell>
        <mxCell id="7S-N-IcKt6Mbr5NxV9ry-43" value="" style="rounded=0;whiteSpace=wrap;html=1;fillColor=#f8cecc;strokeColor=#b85450;" vertex="1" parent="1">
          <mxGeometry x="340" y="190" width="30" height="30" as="geometry" />
        </mxCell>
        <mxCell id="7S-N-IcKt6Mbr5NxV9ry-44" value="" style="rounded=0;whiteSpace=wrap;html=1;fillColor=#f8cecc;strokeColor=#b85450;" vertex="1" parent="1">
          <mxGeometry x="310" y="190" width="30" height="30" as="geometry" />
        </mxCell>
        <mxCell id="7S-N-IcKt6Mbr5NxV9ry-45" value="" style="rounded=0;whiteSpace=wrap;html=1;fillColor=#f8cecc;strokeColor=#b85450;" vertex="1" parent="1">
          <mxGeometry x="280" y="190" width="30" height="30" as="geometry" />
        </mxCell>
        <mxCell id="7S-N-IcKt6Mbr5NxV9ry-46" value="" style="rounded=0;whiteSpace=wrap;html=1;fillColor=#f8cecc;strokeColor=#b85450;" vertex="1" parent="1">
          <mxGeometry x="370" y="190" width="30" height="30" as="geometry" />
        </mxCell>
        <mxCell id="7S-N-IcKt6Mbr5NxV9ry-47" value="" style="rounded=0;whiteSpace=wrap;html=1;fillColor=#f8cecc;strokeColor=#b85450;" vertex="1" parent="1">
          <mxGeometry x="400" y="190" width="30" height="30" as="geometry" />
        </mxCell>
        <mxCell id="7S-N-IcKt6Mbr5NxV9ry-48" value="" style="rounded=0;whiteSpace=wrap;html=1;fillColor=#f8cecc;strokeColor=#b85450;" vertex="1" parent="1">
          <mxGeometry x="430" y="190" width="30" height="30" as="geometry" />
        </mxCell>
        <mxCell id="7S-N-IcKt6Mbr5NxV9ry-49" value="" style="rounded=0;whiteSpace=wrap;html=1;fillColor=#f8cecc;strokeColor=#b85450;" vertex="1" parent="1">
          <mxGeometry x="520" y="190" width="30" height="30" as="geometry" />
        </mxCell>
        <mxCell id="7S-N-IcKt6Mbr5NxV9ry-50" value="" style="rounded=0;whiteSpace=wrap;html=1;fillColor=#f8cecc;strokeColor=#b85450;" vertex="1" parent="1">
          <mxGeometry x="490" y="190" width="30" height="30" as="geometry" />
        </mxCell>
        <mxCell id="7S-N-IcKt6Mbr5NxV9ry-51" value="" style="rounded=0;whiteSpace=wrap;html=1;fillColor=#f8cecc;strokeColor=#b85450;" vertex="1" parent="1">
          <mxGeometry x="460" y="190" width="30" height="30" as="geometry" />
        </mxCell>
        <mxCell id="7S-N-IcKt6Mbr5NxV9ry-52" value="" style="rounded=0;whiteSpace=wrap;html=1;fillColor=#f8cecc;strokeColor=#b85450;" vertex="1" parent="1">
          <mxGeometry x="190" y="220" width="30" height="30" as="geometry" />
        </mxCell>
        <mxCell id="7S-N-IcKt6Mbr5NxV9ry-53" value="" style="rounded=0;whiteSpace=wrap;html=1;fillColor=#f8cecc;strokeColor=#b85450;" vertex="1" parent="1">
          <mxGeometry x="220" y="220" width="30" height="30" as="geometry" />
        </mxCell>
        <mxCell id="7S-N-IcKt6Mbr5NxV9ry-54" value="" style="rounded=0;whiteSpace=wrap;html=1;fillColor=#f8cecc;strokeColor=#b85450;" vertex="1" parent="1">
          <mxGeometry x="250" y="220" width="30" height="30" as="geometry" />
        </mxCell>
        <mxCell id="7S-N-IcKt6Mbr5NxV9ry-55" value="" style="rounded=0;whiteSpace=wrap;html=1;fillColor=#f8cecc;strokeColor=#b85450;" vertex="1" parent="1">
          <mxGeometry x="340" y="220" width="30" height="30" as="geometry" />
        </mxCell>
        <mxCell id="7S-N-IcKt6Mbr5NxV9ry-56" value="" style="rounded=0;whiteSpace=wrap;html=1;fillColor=#f8cecc;strokeColor=#b85450;" vertex="1" parent="1">
          <mxGeometry x="310" y="220" width="30" height="30" as="geometry" />
        </mxCell>
        <mxCell id="7S-N-IcKt6Mbr5NxV9ry-57" value="" style="rounded=0;whiteSpace=wrap;html=1;fillColor=#f8cecc;strokeColor=#b85450;" vertex="1" parent="1">
          <mxGeometry x="280" y="220" width="30" height="30" as="geometry" />
        </mxCell>
        <mxCell id="7S-N-IcKt6Mbr5NxV9ry-58" value="" style="rounded=0;whiteSpace=wrap;html=1;fillColor=#f8cecc;strokeColor=#b85450;" vertex="1" parent="1">
          <mxGeometry x="370" y="220" width="30" height="30" as="geometry" />
        </mxCell>
        <mxCell id="7S-N-IcKt6Mbr5NxV9ry-59" value="" style="rounded=0;whiteSpace=wrap;html=1;fillColor=#f8cecc;strokeColor=#b85450;" vertex="1" parent="1">
          <mxGeometry x="400" y="220" width="30" height="30" as="geometry" />
        </mxCell>
        <mxCell id="7S-N-IcKt6Mbr5NxV9ry-60" value="" style="rounded=0;whiteSpace=wrap;html=1;fillColor=#f8cecc;strokeColor=#b85450;" vertex="1" parent="1">
          <mxGeometry x="430" y="220" width="30" height="30" as="geometry" />
        </mxCell>
        <mxCell id="7S-N-IcKt6Mbr5NxV9ry-61" value="" style="rounded=0;whiteSpace=wrap;html=1;fillColor=#f8cecc;strokeColor=#b85450;" vertex="1" parent="1">
          <mxGeometry x="520" y="220" width="30" height="30" as="geometry" />
        </mxCell>
        <mxCell id="7S-N-IcKt6Mbr5NxV9ry-62" value="" style="rounded=0;whiteSpace=wrap;html=1;fillColor=#f8cecc;strokeColor=#b85450;" vertex="1" parent="1">
          <mxGeometry x="490" y="220" width="30" height="30" as="geometry" />
        </mxCell>
        <mxCell id="7S-N-IcKt6Mbr5NxV9ry-63" value="" style="rounded=0;whiteSpace=wrap;html=1;fillColor=#f8cecc;strokeColor=#b85450;" vertex="1" parent="1">
          <mxGeometry x="460" y="220" width="30" height="30" as="geometry" />
        </mxCell>
      </root>
    </mxGraphModel>
  </diagram>
</mxfile>
